<svg xmlns="http://www.w3.org/2000/svg" width="173.332" height="111" viewBox="0 0 173.332 111">
  <g id="Grupo_258" data-name="Grupo 258" transform="translate(-225.951 -172.766)">
    <g id="Grupo_70" data-name="Grupo 70" transform="translate(278.012 229.898)">
      <g id="Grupo_69" data-name="Grupo 69" transform="translate(0 0)">
        <path id="Trazado_165" data-name="Trazado 165" d="M345.8,301.31a3.113,3.113,0,0,0-1.963.593,1.894,1.894,0,0,0-.656,1.691c0,1.219.008,2.846.023,4.9s.022,3.435.022,4.127l-.09,12.122c0,.448-.008,1.156-.023,2.121s-.023,1.6-.023,1.928a1.916,1.916,0,0,0,.628,1.658,2.94,2.94,0,0,0,1.945.6,3.009,3.009,0,0,0,1.914-.568,1.882,1.882,0,0,0,.659-1.6l-.045-14.955V303.253a1.645,1.645,0,0,0-.618-1.4A2.75,2.75,0,0,0,345.8,301.31Z" transform="translate(-343.086 -301.31)" fill="#fff"/>
      </g>
    </g>
    <g id="Grupo_72" data-name="Grupo 72" transform="translate(295.985 229.988)">
      <g id="Grupo_71" data-name="Grupo 71" transform="translate(0)">
        <path id="Trazado_166" data-name="Trazado 166" d="M404.08,305.245a17.45,17.45,0,0,0-11.1-3.733c-.172,0-.912.007-2.214.023s-2.117.023-2.418.023c-4.825,0-4.825,2.175-4.825,2.889l.09,14.5-.045,9.466a2.345,2.345,0,0,0,.628,1.629,2.3,2.3,0,0,0,1.44.811c.615.056,2.732.085,6.27.085,11.157-.088,16.583-5.218,16.583-15.682C408.49,310.941,407.048,307.666,404.08,305.245Zm-12.489,21.313h-.451a9.618,9.618,0,0,1-1.214-.052,1.54,1.54,0,0,1-.895-.448,1.643,1.643,0,0,1-.408-1.206V305.918l.6-.024c.729-.031,1.843-.045,3.4-.045a11.972,11.972,0,0,1,7.688,2.479c2.1,1.68,3.162,4.193,3.162,7.47C403.478,322.937,399.479,326.557,391.592,326.557Z" transform="translate(-383.523 -301.512)" fill="#fff"/>
      </g>
    </g>
    <g id="Grupo_74" data-name="Grupo 74" transform="translate(363.909 229.673)">
      <g id="Grupo_73" data-name="Grupo 73" transform="translate(0 0)">
        <path id="Trazado_167" data-name="Trazado 167" d="M538.382,324.362a1.716,1.716,0,0,0-1.407.714,2.839,2.839,0,0,0-.626,1.859,2.44,2.44,0,0,0,1.707,2.314,18.811,18.811,0,0,0,8.474,1.7,11.94,11.94,0,0,0,7.646-2.557,8.067,8.067,0,0,0,2.907-6.592c0-2.492-.746-4.283-2.281-5.476h0a17.3,17.3,0,0,0-7.042-2.833,17.058,17.058,0,0,1-4.278-1.292,2.933,2.933,0,0,1-1.716-2.742,3.778,3.778,0,0,1,1.618-3.085,5.9,5.9,0,0,1,3.692-1.188,12.691,12.691,0,0,1,4.6.9c1.875.825,2.941.914,3.753-.064a2.307,2.307,0,0,0,.621-1.471,2.148,2.148,0,0,0-1.3-2.18,17.2,17.2,0,0,0-7.577-1.564,11.007,11.007,0,0,0-7.407,2.664,8.116,8.116,0,0,0-3.049,6.441,5.65,5.65,0,0,0,2.372,4.964,18.246,18.246,0,0,0,7.032,2.665,13.052,13.052,0,0,1,4.145,1.429,3.336,3.336,0,0,1,1.721,2.968,3.865,3.865,0,0,1-1.649,3.25c-2.137,1.586-5.389,1.576-9.718-.288A6.2,6.2,0,0,0,538.382,324.362Z" transform="translate(-536.349 -300.804)" fill="#fff"/>
      </g>
    </g>
    <g id="Grupo_76" data-name="Grupo 76" transform="translate(327.769 229.83)">
      <g id="Grupo_75" data-name="Grupo 75" transform="translate(0)">
        <path id="Trazado_168" data-name="Trazado 168" d="M481.315,327.173c-.6-1.338-1.7-4.013-3.366-8.167a7.788,7.788,0,0,1-.374-.8,5.778,5.778,0,0,0-.32-.685l-.044-.09c-3.7-9.274-5.529-13.851-5.761-14.4a3.054,3.054,0,0,0-3.208-1.871,3.453,3.453,0,0,0-1.781.478,2.509,2.509,0,0,0-1.109,1.251l-5.405,13.242c-.871,2.251-2.284,5.535-4.2,9.752a7.037,7.037,0,0,0-.71,2.581,1.891,1.891,0,0,0,.8,1.732,3.879,3.879,0,0,0,2.22.616c.6,0,1.465-.18,2.129-1.737l2.08-5.515h4.621c4.1,0,6.476.016,7.06.046l.4.021,2.218,5.691a2.263,2.263,0,0,0,2.346,1.539,3.171,3.171,0,0,0,2.065-.674,1.712,1.712,0,0,0,.779-1.314A4.673,4.673,0,0,0,481.315,327.173Zm-9.138-7.366c-2.227.059-4.839.089-7.764.089h-.884l.294-.833c2.258-6.392,3.612-10.265,3.914-11.2l.576-1.782,2.681,7.784q1.579,4.578,1.759,5.121l.264.8Z" transform="translate(-455.037 -301.158)" fill="#fff"/>
      </g>
    </g>
    <g id="Grupo_78" data-name="Grupo 78" transform="translate(241.587 189.77)">
      <g id="Grupo_77" data-name="Grupo 77">
        <path id="Trazado_169" data-name="Trazado 169" d="M263.164,234.582a1.714,1.714,0,0,0-1.406.714,2.838,2.838,0,0,0-.626,1.859,2.441,2.441,0,0,0,1.706,2.314,18.613,18.613,0,0,0,8.475,1.7,11.942,11.942,0,0,0,7.646-2.558,8.065,8.065,0,0,0,2.906-6.592c0-2.492-.746-4.283-2.281-5.476a17.3,17.3,0,0,0-7.042-2.832,17.063,17.063,0,0,1-4.277-1.292,2.932,2.932,0,0,1-1.716-2.742,3.779,3.779,0,0,1,1.618-3.085,5.9,5.9,0,0,1,3.692-1.188,12.707,12.707,0,0,1,4.6.9c1.861.82,2.947.908,3.753-.064a2.313,2.313,0,0,0,.621-1.471,2.148,2.148,0,0,0-1.3-2.18,17.216,17.216,0,0,0-7.578-1.564,11.008,11.008,0,0,0-7.406,2.664,8.117,8.117,0,0,0-3.05,6.441,5.649,5.649,0,0,0,2.372,4.964,18.228,18.228,0,0,0,7.032,2.666,13.017,13.017,0,0,1,4.145,1.429,3.335,3.335,0,0,1,1.721,2.968,3.867,3.867,0,0,1-1.648,3.25c-2.136,1.586-5.388,1.576-9.718-.289A6.2,6.2,0,0,0,263.164,234.582Z" transform="translate(-261.132 -211.023)" fill="#fff"/>
      </g>
    </g>
    <g id="Grupo_80" data-name="Grupo 80" transform="translate(304.994 189.826)">
      <g id="Grupo_79" data-name="Grupo 79" transform="translate(0 0)">
        <path id="Trazado_170" data-name="Trazado 170" d="M406.726,211.15a3.2,3.2,0,0,0-1.971.576,1.844,1.844,0,0,0-.739,1.524c0,1.178.008,3.2.023,6.056s.023,4.958.023,6.31c0,1.387-.044,3.281-.135,5.789-.09,2.436-.135,4.095-.135,4.932,0,.523.029,1.078.086,1.648a2.749,2.749,0,0,0,.98,2.251c.43.254,1.419.536,3.684.431,1.271-.06,3.281-.09,5.975-.09l5.051.044c1.044,0,2.117-.3,2.117-2.483a2.327,2.327,0,0,0-.476-1.57,1.823,1.823,0,0,0-1.49-.464l-6.035.225c-.634.031-2,.045-4.168.045h-.625v-6.03c0-3.574.016-6.29.046-8.074q.09-7.6.09-9.089C409.03,211.758,408.341,211.15,406.726,211.15Z" transform="translate(-403.793 -211.15)" fill="#fff"/>
      </g>
    </g>
    <g id="Grupo_82" data-name="Grupo 82" transform="translate(326.997 189.725)">
      <g id="Grupo_81" data-name="Grupo 81" transform="translate(0 0)">
        <path id="Trazado_171" data-name="Trazado 171" d="M464.661,240.119a2.592,2.592,0,0,0,1.841.545,3.237,3.237,0,0,0,3.3-2.094l3.561-8.25c.584-1.291,1.044-2.359,1.413-3.275s.636-1.583.784-1.972q.241-.626.385-.912c1.942-4.742,3.123-7.647,3.489-8.594a10.81,10.81,0,0,0,.679-2.342,1.8,1.8,0,0,0-.848-1.524,3.165,3.165,0,0,0-1.906-.69,2.189,2.189,0,0,0-2.3,1.409l-6.346,16.968c-.128.291-.342.853-.651,1.706q-.479,1.327-.709,1.875l-.606,1.453-6.591-17.51c-.426-1.306-.968-2.8-1.618-4.451a2.132,2.132,0,0,0-2.212-1.541,3.523,3.523,0,0,0-2.133.715,1.87,1.87,0,0,0-.891,1.589,12.511,12.511,0,0,0,.772,2.442l9.314,22.408a6.622,6.622,0,0,0,1.277,2.043Z" transform="translate(-453.298 -210.922)" fill="#fff"/>
      </g>
    </g>
    <g id="Grupo_84" data-name="Grupo 84" transform="translate(357.918 189.86)">
      <g id="Grupo_83" data-name="Grupo 83" transform="translate(0 0)">
        <path id="Trazado_172" data-name="Trazado 172" d="M549.146,237.241c-.6-1.338-1.7-4.013-3.366-8.167a7.691,7.691,0,0,1-.374-.8,5.791,5.791,0,0,0-.32-.685l-.044-.09c-3.7-9.274-5.529-13.851-5.761-14.4a3.054,3.054,0,0,0-3.208-1.871,3.458,3.458,0,0,0-1.781.478,2.511,2.511,0,0,0-1.109,1.251L527.778,226.2c-.871,2.251-2.285,5.535-4.2,9.752a7.038,7.038,0,0,0-.71,2.58,1.891,1.891,0,0,0,.8,1.733,3.883,3.883,0,0,0,2.221.616c.6,0,1.465-.18,2.128-1.737l2.08-5.515h4.621c4.1,0,6.476.015,7.06.046l.4.021,2.218,5.691a2.263,2.263,0,0,0,2.346,1.539,3.169,3.169,0,0,0,2.065-.675,1.71,1.71,0,0,0,.779-1.313A4.675,4.675,0,0,0,549.146,237.241Zm-9.138-7.366c-2.227.06-4.839.09-7.764.09h-.884l.294-.833c2.258-6.392,3.612-10.265,3.914-11.2l.576-1.782,2.68,7.784q1.579,4.578,1.759,5.121l.264.8Z" transform="translate(-522.869 -211.226)" fill="#fff"/>
      </g>
    </g>
    <path id="Trazado_173" data-name="Trazado 173" d="M313.4,234.916h-3.689l-7.691-24.4a2.026,2.026,0,0,0-3.907-.015l-21.369,62.139L269.458,250.7a2.23,2.23,0,0,0-.9-1.175l-.016-.01c-.056-.036-.107-.077-.166-.108-.034-.017-.07-.024-.1-.039a1.9,1.9,0,0,0-.193-.072c-.06-.019-.118-.042-.179-.056a1.949,1.949,0,0,0-.444-.055h-5.1a1.962,1.962,0,0,0-1.961,1.961v.639a1.962,1.962,0,0,0,1.961,1.961h3.673l8.716,26.27a2.027,2.027,0,0,0,3.911.025l21.383-62.18,6.067,19.633a2.337,2.337,0,0,0,.211.453,1.909,1.909,0,0,0,1.871,1.534H313.4a1.909,1.909,0,0,0,1.909-1.909v-.744A1.909,1.909,0,0,0,313.4,234.916Z" transform="translate(-19.135 -20.142)" fill="#fff"/>
    <g id="Grupo_85" data-name="Grupo 85" transform="translate(375.898 227.679)">
      <path id="Trazado_174" data-name="Trazado 174" d="M563.323,296.318" transform="translate(-563.323 -296.318)" fill="#fff" stroke="#6ab5a4" stroke-miterlimit="10" stroke-width="1"/>
    </g>
    <g id="Grupo_92" data-name="Grupo 92" transform="translate(270.325 270.453)">
      <g id="Grupo_86" data-name="Grupo 86" transform="translate(0 0.039)">
        <path id="Trazado_175" data-name="Trazado 175" d="M335.654,394.08a.9.9,0,0,1-.182.574.632.632,0,0,1-.527.23,2.494,2.494,0,0,1-.747-.249,5.512,5.512,0,0,0-2.356-.537,4.046,4.046,0,0,0-3.1,1.513,5.586,5.586,0,0,0-1.36,3.793,5.119,5.119,0,0,0,1.293,3.524,4.216,4.216,0,0,0,3.246,1.475,4.644,4.644,0,0,0,2.6-.766c.038-.026.086-.054.144-.086a1.2,1.2,0,0,0,.124-.077.455.455,0,0,1,.115-.057.671.671,0,0,1,.154-.039,1.42,1.42,0,0,1,.172-.009.516.516,0,0,1,.44.249.955.955,0,0,1,.172.556q0,.632-1.322,1.188a7.048,7.048,0,0,1-2.758.556,5.865,5.865,0,0,1-4.214-1.781,6.168,6.168,0,0,1-1.762-4.636,6.825,6.825,0,0,1,1.906-4.97,5.846,5.846,0,0,1,4.319-1.886,6.776,6.776,0,0,1,2.8.556Q335.654,393.583,335.654,394.08Z" transform="translate(-325.79 -392.644)" fill="#fff"/>
      </g>
      <g id="Grupo_87" data-name="Grupo 87" transform="translate(14.982 0.096)">
        <path id="Trazado_176" data-name="Trazado 176" d="M359.786,404.208,361.8,399.5q.557-1.282,2.433-6.11a.914.914,0,0,1,.919-.613.961.961,0,0,1,.957.632q.345.786,1.293,3.276t1.292,3.371c.013.038.048.121.106.249s.1.224.124.287l1.685,4.1a1.757,1.757,0,0,1,.153.556.584.584,0,0,1-.259.441.927.927,0,0,1-.6.211.791.791,0,0,1-.517-.144,1.327,1.327,0,0,1-.325-.526q-1.131-2.911-1.149-2.95-.594-.019-3.639-.02h-1.954q-.095.23-.526,1.36t-.565,1.437a1.861,1.861,0,0,1-.479.747.758.758,0,0,1-.345.076q-.9,0-.9-.727A2.9,2.9,0,0,1,359.786,404.208Zm3.007-3.276q2.241.039,4.617-.019-.116-.306-.623-1.715t-.967-2.662q-.46-1.255-.67-1.772Q364.363,397.025,362.793,400.932Z" transform="translate(-359.499 -392.772)" fill="#fff"/>
      </g>
      <g id="Grupo_88" data-name="Grupo 88" transform="translate(32.263 0.115)">
        <path id="Trazado_177" data-name="Trazado 177" d="M399.7,392.854q1.149-.038,1.876-.038.92,0,1.4.038A4.543,4.543,0,0,1,405.926,394a3.622,3.622,0,0,1,1.092,2.758,3.867,3.867,0,0,1-.738,2.384,3.5,3.5,0,0,1-1.963,1.312l2.969,4.119a1.1,1.1,0,0,1,.268.574.683.683,0,0,1-.249.527.819.819,0,0,1-1.284-.164l-3.218-4.654H399.95q0,.575.01,2.078t.01,2q0,.92-.709.939a.877.877,0,0,1-.7-.22,1.166,1.166,0,0,1-.182-.737q.039-1.189.038-8.984,0-.326-.01-1.025t-.009-1.024Q398.4,392.892,399.7,392.854Zm.229,1.379.02,5.249h2.3a3.837,3.837,0,0,0,2.327-.642,2.429,2.429,0,0,0,.89-2.059,2.289,2.289,0,0,0-.833-1.906,3.625,3.625,0,0,0-2.308-.66Q400.5,394.214,399.93,394.233Z" transform="translate(-398.379 -392.816)" fill="#fff"/>
      </g>
      <g id="Grupo_89" data-name="Grupo 89" transform="translate(47.532 0.096)">
        <path id="Trazado_178" data-name="Trazado 178" d="M434.285,392.792l1.312-.01,1.274-.01a7.313,7.313,0,0,1,4.606,1.733,5.536,5.536,0,0,1,1.829,4.4q0,6.857-7.279,6.915-1.513,0-2.356-.038-.92-.057-.92-1.131l.038-5.209-.057-5.536Q432.734,392.791,434.285,392.792Zm.038,1.494v9.634a.328.328,0,0,0,.278.364,8.751,8.751,0,0,0,1.312.058q5.8,0,5.8-5.23a4.794,4.794,0,0,0-.766-2.757,4.378,4.378,0,0,0-1.944-1.629,6.809,6.809,0,0,0-2.672-.5Q435.012,394.228,434.323,394.286Z" transform="translate(-432.734 -392.772)" fill="#fff"/>
      </g>
      <g id="Grupo_90" data-name="Grupo 90" transform="translate(64.582 0.077)">
        <path id="Trazado_179" data-name="Trazado 179" d="M471.115,396.035q-.019-1.485-.019-2.5,0-.805.843-.8a.8.8,0,0,1,.556.191.689.689,0,0,1,.211.537q0,1.493-.02,4.769v3.064l.02,3.678q0,.9-.8.9a.9.9,0,0,1-.594-.192.632.632,0,0,1-.211-.555q0-.269.01-.824t.009-.862l.019-5.363Q471.134,397.518,471.115,396.035Z" transform="translate(-471.094 -392.73)" fill="#fff"/>
      </g>
      <g id="Grupo_91" data-name="Grupo 91" transform="translate(72.821 0)">
        <path id="Trazado_180" data-name="Trazado 180" d="M500.254,394.4a6.34,6.34,0,0,1,1.81,4.635,7.017,7.017,0,0,1-1.772,4.865,5.755,5.755,0,0,1-4.473,1.973,6.19,6.19,0,0,1-2.989-.756,6.05,6.05,0,0,1-2.3-2.233,6.3,6.3,0,0,1-.9-3.351,7.777,7.777,0,0,1,.536-2.912A6.452,6.452,0,0,1,491.6,394.4a6.6,6.6,0,0,1,2.012-1.37,5.447,5.447,0,0,1,2.289-.468A5.894,5.894,0,0,1,500.254,394.4Zm-1.217,1.073a4.623,4.623,0,0,0-3.352-1.418,4.08,4.08,0,0,0-3.141,1.513,5.481,5.481,0,0,0-1.341,3.773,4.937,4.937,0,0,0,1.379,3.621,4.552,4.552,0,0,0,3.371,1.4,4.078,4.078,0,0,0,3.228-1.58,5.467,5.467,0,0,0,1.312-3.687A4.93,4.93,0,0,0,499.037,395.468Z" transform="translate(-489.632 -392.556)" fill="#fff"/>
      </g>
    </g>
    <path id="Trazado_181" data-name="Trazado 181" d="M593.541,187.76c0-12.393-8.612-14.994-15.837-14.994a2.082,2.082,0,0,0,0,4.165c10.346,0,11.672,5.788,11.672,10.829v38.45a1.651,1.651,0,0,1,0,.66v38.448c0,5.043-1.327,10.83-11.672,10.83a2.083,2.083,0,0,0,0,4.165c7.225,0,15.837-2.6,15.837-15V226.87a1.651,1.651,0,0,1,0-.66Z" transform="translate(-194.257)" fill="#fff"/>
    <path id="Trazado_182" data-name="Trazado 182" d="M241.788,276.149c-10.345,0-11.672-5.788-11.672-10.83V226.87a1.672,1.672,0,0,1,0-.66V187.76c0-5.041,1.327-10.829,11.672-10.829a2.082,2.082,0,1,0,0-4.165c-7.225,0-15.837,2.6-15.837,14.994v38.45a1.672,1.672,0,0,1,0,.66v38.448c0,12.394,8.612,15,15.837,15a2.083,2.083,0,1,0,0-4.165Z" fill="#fff"/>
  </g>
</svg>
