<svg xmlns="http://www.w3.org/2000/svg" viewBox="0 0 496.06 317.67"><defs><style>.cls-1{fill:#74bdac;}.cls-2{fill:#757679;}</style></defs><g id="Capa_2" data-name="Capa 2"><g id="Capa_1-2" data-name="Capa 1"><path class="cls-1" d="M156.75,163.51a8.9,8.9,0,0,0-5.61,1.69c-1.34,1-1.95,2.6-1.88,4.84,0,3.49,0,8.15.06,14s.07,9.83.07,11.81l-.26,34.69q0,1.92-.07,6.08c0,2.73-.06,4.57-.06,5.51a5.49,5.49,0,0,0,1.8,4.75,8.43,8.43,0,0,0,5.57,1.71,8.65,8.65,0,0,0,5.48-1.62,5.4,5.4,0,0,0,1.88-4.58l-.13-42.8V169.07a4.72,4.72,0,0,0-1.77-4,7.87,7.87,0,0,0-5.08-1.54"/><path class="cls-1" d="M259.26,174.45c-8.49-6.93-19.18-10.52-31.76-10.69l-6.34.07-6.92.06c-13.81,0-13.81,6.23-13.81,8.27l.26,41.5-.13,27.09a6.73,6.73,0,0,0,1.8,4.67,6.66,6.66,0,0,0,4.12,2.32c1.76.16,7.82.24,18,.24,31.92-.25,47.45-14.93,47.45-44.88,0-12.35-4.12-21.73-12.62-28.65m-35.74,61h-1.29a27.48,27.48,0,0,1-3.47-.15A4.36,4.36,0,0,1,216.2,234a4.7,4.7,0,0,1-1.17-3.45V176.38l1.72-.08c2.08-.08,5.27-.13,9.74-.13,8.71,0,16.11,2.39,22,7.1s9.05,12,9.05,21.38c0,20.43-11.44,30.79-34,30.79"/><path class="cls-1" d="M400.64,230.28a4.89,4.89,0,0,0-4,2.05,8.09,8.09,0,0,0-1.79,5.32c0,3,1.55,5.1,4.88,6.62,6.72,3.32,14.88,4.92,24.25,4.87,8.89-.16,16.26-2.63,21.88-7.32S454.16,231,454.16,223c0-7.13-2.14-12.25-6.53-15.67-4.57-3.55-11.35-6.27-20.15-8.1a48.67,48.67,0,0,1-12.24-3.7,8.39,8.39,0,0,1-4.91-7.85A10.83,10.83,0,0,1,415,178.8a16.82,16.82,0,0,1,10.56-3.4A36.54,36.54,0,0,1,438.68,178c5.36,2.36,8.41,2.62,10.74-.18a6.63,6.63,0,0,0,1.77-4.21c0-3.09-1.18-5.07-3.72-6.24-6.12-3-13.4-4.48-21.69-4.48a31.52,31.52,0,0,0-21.2,7.63c-5.87,5.06-8.72,11.08-8.72,18.43,0,6.32,2.22,11,6.78,14.2,4.8,3.41,11.57,6,20.13,7.64a37.25,37.25,0,0,1,11.86,4.08,9.57,9.57,0,0,1,4.93,8.5,11.06,11.06,0,0,1-4.72,9.3c-6.12,4.54-15.42,4.51-27.81-.82a17.59,17.59,0,0,0-6.39-1.54"/><path class="cls-1" d="M366.6,237.77c-1.7-3.83-4.86-11.49-9.63-23.38a21.91,21.91,0,0,1-1.08-2.29,16.05,16.05,0,0,0-.91-1.95l-.13-.27c-10.58-26.53-15.82-39.63-16.48-41.21-1.45-3.61-4.45-5.36-9.19-5.36a9.89,9.89,0,0,0-5.09,1.37,7.15,7.15,0,0,0-3.17,3.58l-15.48,37.9c-2.49,6.44-6.53,15.84-12,27.91a20,20,0,0,0-2,7.38c0,2.34.72,3.92,2.3,5a11.07,11.07,0,0,0,6.35,1.77c1.71,0,4.19-.52,6.09-5l5.95-15.78h13.23c11.73,0,18.53,0,20.2.13l1.15.06L353,243.9c1.19,3,3.33,4.4,6.72,4.4a9.07,9.07,0,0,0,5.91-1.93c1.5-1.2,2.23-2.43,2.23-3.76a13.31,13.31,0,0,0-1.28-4.84m-26.15-21.08c-6.38.16-13.85.25-22.22.25H315.7l.84-2.38c6.47-18.29,10.34-29.38,11.2-32.05l1.65-5.11,7.67,22.28q4.53,13.11,5,14.66l.75,2.28Z"/><path class="cls-1" d="M49.43,161.05H64a5.61,5.61,0,0,1,5.61,5.61v1.83A5.61,5.61,0,0,1,64,174.1H49.43a5.61,5.61,0,0,1-5.61-5.61v-1.83a5.61,5.61,0,0,1,5.61-5.61"/><path class="cls-1" d="M50.57,116.08a4.91,4.91,0,0,0-4,2,8.15,8.15,0,0,0-1.79,5.32c0,3,1.55,5.1,4.88,6.62,6.73,3.32,14.9,5,24.26,4.87,8.89-.16,16.26-2.63,21.88-7.32s8.31-10.84,8.31-18.87c0-7.13-2.13-12.25-6.52-15.67C93,89.53,86.2,86.81,77.4,85a48.94,48.94,0,0,1-12.24-3.7,8.4,8.4,0,0,1-4.91-7.85,10.83,10.83,0,0,1,4.63-8.83,16.87,16.87,0,0,1,10.57-3.4A36.45,36.45,0,0,1,88.6,63.77c5.32,2.35,8.43,2.6,10.74-.18a6.62,6.62,0,0,0,1.78-4.21c0-3.09-1.19-5.07-3.73-6.24-6.12-3-13.4-4.48-21.69-4.48a31.48,31.48,0,0,0-21.19,7.63c-5.88,5.06-8.73,11.08-8.73,18.43,0,6.32,2.22,11,6.79,14.21,4.8,3.4,11.57,6,20.12,7.63a37.32,37.32,0,0,1,11.87,4.08,9.56,9.56,0,0,1,4.92,8.5,11.08,11.08,0,0,1-4.71,9.3C78.65,123,69.34,123,57,117.62a17.59,17.59,0,0,0-6.38-1.54"/><path class="cls-1" d="M234.61,48.82A9.16,9.16,0,0,0,229,50.47a5.29,5.29,0,0,0-2.12,4.36c0,3.38,0,9.17.07,17.33s.07,14.19.07,18.06-.13,9.39-.39,16.57c-.26,7-.38,11.72-.38,14.11,0,1.5.08,3.09.24,4.72.29,3.36,1.24,5.51,2.81,6.44,1.23.73,4.06,1.54,10.54,1.24,3.64-.17,9.39-.26,17.1-.26l14.46.13c3,0,6.06-.85,6.06-7.11a6.66,6.66,0,0,0-1.36-4.49c-.84-1-2.27-1.38-4.27-1.33l-17.27.65c-1.82.08-5.72.13-11.93.13h-1.79V103.76c0-10.23.05-18,.13-23.11q.26-21.75.26-26c0-4.08-2-5.82-6.59-5.82"/><path class="cls-1" d="M321.71,132.09c1.06,1,2.83,1.56,5.26,1.56,4.67,0,7.75-2,9.44-6l10.19-23.61c1.67-3.69,3-6.75,4-9.37s1.81-4.53,2.24-5.65.83-2.06,1.1-2.61c5.56-13.57,8.94-21.88,10-24.59,1.8-5.18,1.94-6.44,1.94-6.7a5.15,5.15,0,0,0-2.43-4.36,9,9,0,0,0-5.45-2c-3.4,0-5.49,1.28-6.59,4l-18.16,48.56c-.37.83-1,2.44-1.87,4.88s-1.59,4.32-2,5.37l-1.74,4.15L308.8,65.68c-1.22-3.74-2.77-8-4.63-12.74a6.12,6.12,0,0,0-6.33-4.41,10.1,10.1,0,0,0-6.11,2,5.36,5.36,0,0,0-2.55,4.55c0,.17.14,1.35,2.21,7l26.66,64.12a18.88,18.88,0,0,0,3.66,5.85"/><path class="cls-1" d="M452.88,123.37c-1.7-3.83-4.86-11.48-9.63-23.37a22.28,22.28,0,0,1-1.07-2.29,16.7,16.7,0,0,0-.92-2l-.13-.26C430.55,69,425.31,55.86,424.65,54.27c-1.45-3.61-4.44-5.35-9.18-5.35a9.9,9.9,0,0,0-5.1,1.37,7.15,7.15,0,0,0-3.17,3.58l-15.47,37.9c-2.5,6.44-6.54,15.84-12,27.91a20.19,20.19,0,0,0-2,7.38c0,2.34.73,3.91,2.3,5a11.06,11.06,0,0,0,6.35,1.76c1.71,0,4.19-.51,6.09-5L398.37,113H411.6c11.74,0,18.54,0,20.2.13l1.16.06,6.34,16.29c1.19,3,3.33,4.4,6.72,4.4a9.07,9.07,0,0,0,5.91-1.93c1.5-1.2,2.23-2.43,2.23-3.76a13.4,13.4,0,0,0-1.28-4.85m-26.15-21.08c-6.37.17-13.85.26-22.22.26H402l.84-2.39c6.47-18.29,10.34-29.37,11.2-32l1.65-5.1,7.68,22.28q4.51,13.09,5,14.66l.76,2.28Z"/><path class="cls-1" d="M64.15,161.07a5.46,5.46,0,0,0-2.05.4,6.19,6.19,0,0,0-3.37,3.39,7.09,7.09,0,0,0-.19,5l26.34,79.41a5.81,5.81,0,0,0,11.2.07L157.27,71.4l17.36,56.19a5.85,5.85,0,0,0,7.68,3.87,6.77,6.77,0,0,0,3.52-8.42L162.93,50.4a5.8,5.8,0,0,0-11.18,0L90.59,228.19,69.75,165.38a6.35,6.35,0,0,0-3.09-3.7,5.44,5.44,0,0,0-2.51-.61"/><path class="cls-1" d="M180.59,120.22H195.5a5.47,5.47,0,0,1,5.46,5.46v2.13a5.47,5.47,0,0,1-5.46,5.47H180.59a5.46,5.46,0,0,1-5.46-5.47v-2.13a5.46,5.46,0,0,1,5.46-5.46"/><path class="cls-2" d="M155.23,283.79a2.62,2.62,0,0,1-.52,1.65,1.81,1.81,0,0,1-1.51.66,7.19,7.19,0,0,1-2.14-.72,15.81,15.81,0,0,0-6.74-1.53,11.56,11.56,0,0,0-8.88,4.33,16,16,0,0,0-3.9,10.86,14.65,14.65,0,0,0,3.71,10.08,12,12,0,0,0,9.29,4.22,13.3,13.3,0,0,0,7.45-2.19,4.37,4.37,0,0,1,.41-.25,2.17,2.17,0,0,0,.36-.22,1.26,1.26,0,0,1,.33-.16,1.67,1.67,0,0,1,.44-.11,3.58,3.58,0,0,1,.49,0,1.49,1.49,0,0,1,1.26.71,2.74,2.74,0,0,1,.49,1.59q0,1.81-3.78,3.4a20.15,20.15,0,0,1-7.89,1.59,16.8,16.8,0,0,1-12.06-5.1q-5.1-5-5-13.26.06-8.78,5.46-14.23a16.78,16.78,0,0,1,12.36-5.4,19.4,19.4,0,0,1,8,1.59c1.61.73,2.42,1.58,2.42,2.52"/><path class="cls-2" d="M170.7,312.57l5.75-13.48q1.59-3.68,7-17.49a2.62,2.62,0,0,1,2.63-1.75,2.76,2.76,0,0,1,2.75,1.81c.65,1.5,1.89,4.62,3.69,9.37s3.05,8,3.7,9.65c0,.11.14.34.31.71s.28.64.35.82l4.83,11.73a5,5,0,0,1,.43,1.59,1.64,1.64,0,0,1-.74,1.26,2.59,2.59,0,0,1-1.72.61,2.29,2.29,0,0,1-1.48-.41,3.84,3.84,0,0,1-.93-1.51q-3.24-8.34-3.29-8.44-1.71-.06-10.42-.06h-5.59c-.18.44-.68,1.74-1.51,3.9s-1.36,3.52-1.61,4.11a5.42,5.42,0,0,1-1.37,2.13,2.18,2.18,0,0,1-1,.22c-1.72,0-2.58-.69-2.58-2.08a8.41,8.41,0,0,1,.83-2.69m8.6-9.37q6.42.1,13.21-.05-.33-.88-1.78-4.91T188,290.62q-1.31-3.58-1.92-5.07-2.25,6.46-6.74,17.65"/><path class="cls-2" d="M223.11,280c2.2-.07,4-.11,5.37-.11,1.76,0,3.09,0,4,.11a13,13,0,0,1,8.45,3.29,10.38,10.38,0,0,1,3.12,7.9,11.05,11.05,0,0,1-2.11,6.82,10.09,10.09,0,0,1-5.62,3.76l8.5,11.78a3.17,3.17,0,0,1,.77,1.64,1.94,1.94,0,0,1-.72,1.51,2.34,2.34,0,0,1-3.67-.46L232,302.93h-8.17q0,1.63,0,5.94t0,5.73c0,1.76-.68,2.65-2,2.69a2.52,2.52,0,0,1-2-.63,3.33,3.33,0,0,1-.52-2.11q.1-3.41.11-25.71,0-.93,0-2.94c0-1.33,0-2.31,0-2.93,0-1.9,1.25-2.89,3.73-3m.66,3.95,0,15h6.58a10.94,10.94,0,0,0,6.66-1.84c1.66-1.22,2.52-3.19,2.55-5.89a6.57,6.57,0,0,0-2.38-5.45,10.32,10.32,0,0,0-6.61-1.89c-3.47,0-5.76,0-6.85,0"/><path class="cls-2" d="M267.47,279.9l3.75,0,3.65,0a20.87,20.87,0,0,1,13.18,5q5.24,4.57,5.24,12.58,0,19.62-20.83,19.79-4.33,0-6.75-.11c-1.75-.11-2.63-1.19-2.63-3.24l.11-14.9L263,283.08q0-3.18,4.44-3.18m.11,4.28v27.57a.93.93,0,0,0,.79,1,24.74,24.74,0,0,0,3.76.17q16.61,0,16.61-15a13.74,13.74,0,0,0-2.2-7.89,12.49,12.49,0,0,0-5.56-4.66,19.5,19.5,0,0,0-7.65-1.43c-2.52,0-4.44.06-5.75.17"/><path class="cls-2" d="M311.88,289.25c0-2.83-.05-5.22-.05-7.15,0-1.54.8-2.31,2.41-2.31a2.26,2.26,0,0,1,1.59.55,2,2,0,0,1,.6,1.54q0,4.28-.05,13.65v8.77l.05,10.52c0,1.72-.77,2.58-2.3,2.58a2.59,2.59,0,0,1-1.7-.55,1.81,1.81,0,0,1-.6-1.59c0-.51,0-1.3,0-2.36s0-1.88,0-2.46l.05-15.35c0-1.06,0-3-.05-5.84"/><path class="cls-2" d="M365.8,284.84A18.13,18.13,0,0,1,371,298.1,20.06,20.06,0,0,1,365.91,312a16.45,16.45,0,0,1-12.8,5.65,17.69,17.69,0,0,1-8.55-2.16,17.42,17.42,0,0,1-6.58-6.39,18,18,0,0,1-2.58-9.59,22,22,0,0,1,1.54-8.33,18.34,18.34,0,0,1,4.08-6.36,18.84,18.84,0,0,1,5.76-3.93,15.69,15.69,0,0,1,6.55-1.34,16.88,16.88,0,0,1,12.47,5.27m-3.48,3.07a13.21,13.21,0,0,0-9.59-4.06,11.68,11.68,0,0,0-9,4.33A15.73,15.73,0,0,0,339.9,299a14.13,14.13,0,0,0,3.94,10.36,13,13,0,0,0,9.65,4,11.69,11.69,0,0,0,9.24-4.52,15.63,15.63,0,0,0,3.75-10.55,14.07,14.07,0,0,0-4.16-10.36"/><path class="cls-1" d="M490.1,158.91a6,6,0,0,1-6-6v-110c0-14.43-3.79-31-33.4-31a6,6,0,0,1,0-11.92c20.68,0,45.32,7.45,45.32,42.91V153a6,6,0,0,1-6,6"/><path class="cls-1" d="M450.74,307.79a6,6,0,0,1,0-11.92c29.61,0,33.4-16.56,33.4-31v-110a6,6,0,1,1,11.92,0v110c0,35.47-24.64,42.91-45.32,42.91"/><path class="cls-1" d="M45.33,307.79C24.65,307.79,0,300.35,0,264.88v-110a6,6,0,0,1,11.92,0v110c0,14.43,3.8,31,33.41,31a6,6,0,0,1,0,11.92"/><path class="cls-1" d="M6,158.91a6,6,0,0,1-6-6v-110C0,7.45,24.65,0,45.33,0a6,6,0,1,1,0,11.92c-29.61,0-33.41,16.56-33.41,31V153a6,6,0,0,1-6,6"/></g></g></svg>